<?xml version="1.0" encoding="iso-8859-1"?>
<!-- Generator: Adobe Illustrator 19.0.0, SVG Export Plug-In . SVG Version: 6.00 Build 0)  -->
<svg version="1.1" id="Layer_1" xmlns="http://www.w3.org/2000/svg" xmlns:xlink="http://www.w3.org/1999/xlink" x="0px" y="0px"
	 viewBox="0 0 512.001 512.001" style="enable-background:new 0 0 512.001 512.001;" xml:space="preserve">
<path style="fill:#FF6464;" d="M414.428,35.703v408.083c0,30.44-24.68,55.12-55.12,55.12H120.185
	c-12.49,0-22.611-10.121-22.611-22.611V35.703c0-12.49,10.121-22.611,22.611-22.611h271.632
	C404.307,13.093,414.428,23.213,414.428,35.703z M360.748,259.927V74.012H151.253v185.915H360.748z M356.925,330.522
	c0-7.24-5.852-13.093-13.093-13.093c-7.227,0-13.093,5.852-13.093,13.093c0,7.227,5.865,13.093,13.093,13.093
	C351.072,343.615,356.925,337.749,356.925,330.522z M323.107,364.341c0-7.227-5.865-13.093-13.093-13.093
	s-13.093,5.865-13.093,13.093c0,7.227,5.865,13.093,13.093,13.093C317.241,377.433,323.107,371.568,323.107,364.341z"/>
<rect x="151.26" y="74.012" style="fill:#94D8F2;" width="209.494" height="185.915"/>
<path d="M343.832,317.43c-7.227,0-13.093,5.852-13.093,13.093c0,7.227,5.865,13.093,13.093,13.093
	c7.24,0,13.093-5.865,13.093-13.093C356.925,323.282,351.072,317.43,343.832,317.43z"/>
<path d="M310.014,351.248c-7.227,0-13.093,5.865-13.093,13.093c0,7.227,5.865,13.093,13.093,13.093s13.093-5.866,13.093-13.093
	C323.107,357.113,317.241,351.248,310.014,351.248z"/>
<path d="M391.817,0H120.185c-19.687,0-35.703,16.016-35.703,35.705v440.592c0,19.687,16.016,35.705,35.703,35.705h239.123
	c37.612,0,68.212-30.6,68.212-68.214V35.705C427.52,16.016,411.504,0,391.817,0z M401.335,443.786
	c0,23.174-18.853,42.029-42.027,42.029H120.185c-5.249,0-9.518-4.271-9.518-9.52V35.705c0-5.249,4.27-9.52,9.518-9.52h271.632
	c5.249,0,9.518,4.271,9.518,9.52V443.786z"/>
<path d="M360.748,60.92H151.253c-7.231,0-13.093,5.863-13.093,13.093v185.915c0,7.23,5.862,13.093,13.093,13.093h209.494
	c7.231,0,13.093-5.863,13.093-13.093V74.012C373.84,66.783,367.979,60.92,360.748,60.92z M347.655,246.835H164.346V87.105h183.309
	V246.835z"/>
<path d="M233.095,436.022h-19.128c-7.231,0-13.093,5.863-13.093,13.093c0,7.23,5.862,13.093,13.093,13.093h19.128
	c7.231,0,13.093-5.863,13.093-13.093C246.188,441.885,240.326,436.022,233.095,436.022z"/>
<path d="M298.049,436.022h-19.128c-7.231,0-13.093,5.863-13.093,13.093c0,7.23,5.862,13.093,13.093,13.093h19.128
	c7.231,0,13.093-5.863,13.093-13.093C311.141,441.885,305.279,436.022,298.049,436.022z"/>
<path d="M201.018,355.071h15.711c7.231,0,13.093-5.863,13.093-13.093s-5.862-13.093-13.093-13.093h-15.711v-15.724
	c0-7.23-5.862-13.093-13.093-13.093s-13.093,5.863-13.093,13.093v15.724h-15.724c-7.231,0-13.093,5.863-13.093,13.093
	s5.862,13.093,13.093,13.093h15.724v15.711c0,7.23,5.862,13.093,13.093,13.093s13.093-5.863,13.093-13.093V355.071z"/>
<g>
</g>
<g>
</g>
<g>
</g>
<g>
</g>
<g>
</g>
<g>
</g>
<g>
</g>
<g>
</g>
<g>
</g>
<g>
</g>
<g>
</g>
<g>
</g>
<g>
</g>
<g>
</g>
<g>
</g>
</svg>
